# xmcd
#
# Track frame offsets:
#       150
#       13628
#       33064
#       46542
#       58298
#       77734
#       93408
#       109706
#       117070
#       133212
#       150140
#       162988
#       175368
#       189002
#       202012
#       217524
#       231002
#       241186
#       259836
#       281936
#       313282
#       328794
#
# Disc length: 4741 seconds
#
# Revision: 0
# Processed by: cddbd v1.5.1PL0 Copyright (c) Steve Scherf et al.
# Submitted via: CD-DA_X-Tractor v0.21
#
DISCID=22128316
DTITLE=Jablkon - Cestujici v noci
DYEAR=1900
DGENRE=
TTITLE0=Nekonecna
TTITLE1=Stmivani
TTITLE2=Poledne pulnoc
TTITLE3=Smutna
TTITLE4=Ej horo
TTITLE5=Bledemodry cerven
TTITLE6=Mostecka
TTITLE7=Nocni Prahou
TTITLE8=Na troskach
TTITLE9=Rano
TTITLE10=Cas ptacich hrazi
TTITLE11=Cestujici v noci
TTITLE12=Vitezna
TTITLE13=Vracim se domu
TTITLE14=Jednou
TTITLE15=Kdopak nam zazpiva
TTITLE16=Dvorak
TTITLE17=Dvorak
TTITLE18=Dvorak
TTITLE19=Dvorak
TTITLE20=Dvorak
TTITLE21=Dvorak
EXTD=
EXTT0=
EXTT1=
EXTT2=
EXTT3=
EXTT4=
EXTT5=
EXTT6=
EXTT7=
EXTT8=
EXTT9=
EXTT10=
EXTT11=
EXTT12=
EXTT13=
EXTT14=
EXTT15=
EXTT16=
EXTT17=
EXTT18=
EXTT19=
EXTT20=
EXTT21=
PLAYORDER=
